<svg id="Layer_1" data-name="Layer 1" xmlns="http://www.w3.org/2000/svg" viewBox="0 0 815.32 750.89"><defs><style>.cls-1{fill:#262626;}</style></defs><path class="cls-1" d="M514,837.33l-1.62,2.82h.46l-20.38,35.29H884.5L745.74,635.11a288,288,0,0,1-40.22,6.55l113,195.67Z" transform="translate(-92.34 -124.56)"/><path class="cls-1" d="M679,124.56H323.19V265.64H361.3v-103H679c105.25,0,190.57,85.32,190.57,190.56h0c0,105.25-85.32,190.57-190.57,190.57H514.12l-22,38.11h.55L345.2,837.33H158.35L488.42,265.64,613.81,482.82h44L488.42,189.41l-396.08,686H367.7l22-38.11h-.49L536.68,581.91H679c126.09,0,228.67-102.59,228.67-228.68S805.08,124.56,679,124.56Z" transform="translate(-92.34 -124.56)"/></svg>