<svg xmlns="http://www.w3.org/2000/svg" viewBox="0 0 2400 1700"><g id="OBJECTS"><path d="M1650.06,775.1c220.79-.07,399.76-190.22,399.82-424.8H1650.06Z" transform="translate(350 -350)"/><path d="M1250,1200.15c220.79-.07,399.76-190.22,399.82-424.8H1250Z" transform="translate(350 -350)"/><path d="M1649.82,775.1c-.06-234.58-179-424.73-399.82-424.8V775.1Z" transform="translate(350 -350)"/><path d="M2049.88,775.35c-220.79.07-399.76,190.22-399.82,424.8h399.82Z" transform="translate(350 -350)"/><path d="M2050,1625c-.06-234.58-179-424.73-399.82-424.8V1625Z" transform="translate(350 -350)"/><path d="M1649.94,2050c-.06-234.58-179-424.73-399.82-424.8V2050Z" transform="translate(350 -350)"/><path d="M1649.94,1200.15c-220.79.07-399.76,190.22-399.82,424.8h399.82Z" transform="translate(350 -350)"/><path d="M2050,1625.2c-220.79.07-399.76,190.22-399.82,424.8H2050Z" transform="translate(350 -350)"/><path d="M1250,350.3c-220.79.07-399.76,190.22-399.82,424.8H1250Z" transform="translate(350 -350)"/><path d="M450.12,1200.15c220.79-.07,399.76-190.22,399.82-424.8H450.12Z" transform="translate(350 -350)"/><path d="M450.12,350.3c.06,234.58,179,424.73,399.82,424.8V350.3Z" transform="translate(350 -350)"/><path d="M850.18,1200.15c220.78-.07,399.76-190.22,399.82-424.8H850.18Z" transform="translate(350 -350)"/><path d="M850.29,1625c220.79-.07,399.76-190.22,399.83-424.8H850.29Z" transform="translate(350 -350)"/><path d="M450.24,1625.2c.06,234.58,179,424.73,399.82,424.8V1625.2Z" transform="translate(350 -350)"/><path d="M850.06,1625c-.06-234.58-179-424.73-399.82-424.8V1625Z" transform="translate(350 -350)"/><path d="M850.29,2050c220.79-.07,399.76-190.22,399.83-424.8H850.29Z" transform="translate(350 -350)"/><path d="M449.88,350c-220.79.07-399.76,190.22-399.82,424.8H449.88Z" transform="translate(350 -350)"/><path d="M-350,1199.85c220.79-.07,399.76-190.22,399.82-424.8H-350Z" transform="translate(350 -350)"/><path d="M49.82,774.8C49.76,540.22-129.21,350.07-350,350V774.8Z" transform="translate(350 -350)"/><path d="M449.88,775.05c-220.79.07-399.76,190.22-399.82,424.8H449.88Z" transform="translate(350 -350)"/><path d="M50.18,1624.65c220.78-.07,399.76-190.22,399.82-424.8H50.18Z" transform="translate(350 -350)"/><path d="M49.94,1624.9c-220.79.07-399.76,190.22-399.82,424.8H49.94Z" transform="translate(350 -350)"/><path d="M49.94,1199.85c-220.79.07-399.76,190.22-399.82,424.8H49.94Z" transform="translate(350 -350)"/><path d="M450,2049.7c-.06-234.58-179-424.73-399.82-424.8v424.8Z" transform="translate(350 -350)"/></g></svg>